<svg width="1113" height="200" viewBox="0 0 1113 200" fill="none" xmlns="http://www.w3.org/2000/svg">
<path fill-rule="evenodd" clip-rule="evenodd" d="M153.646 63.2162H78.2181C59.9759 63.2162 48.5352 76.1343 48.5352 94.4217V143.761C48.5352 162.048 59.9128 174.966 78.2181 174.966H153.637C171.951 174.966 183.337 162.048 183.337 143.761V94.4217C183.337 76.1343 171.951 63.2162 153.646 63.2162Z" stroke="white" stroke-width="15" stroke-linecap="round" stroke-linejoin="round"/>
<path d="M78.1006 100.403H153.727" stroke="white" stroke-width="10" stroke-linecap="round" stroke-linejoin="round"/>
<path d="M150.71 63.197L137.495 41.1713C128.027 25.5777 111.649 20.3167 95.9303 29.7936L31.3573 68.6561C15.7006 78.061 12.5476 95.0241 21.9525 110.744L47.4644 152.957C48.6536 155.002 49.9688 156.84 51.4732 158.488V158.552" stroke="white" stroke-width="15" stroke-linecap="round" stroke-linejoin="round"/>
<path d="M338.965 28.8125V171H314.453V28.8125H338.965ZM396.973 91.0195V110.453H332.715V91.0195H396.973ZM405.078 28.8125V48.3438H332.715V28.8125H405.078ZM448.461 65.3359V171H424.828V65.3359H448.461ZM423.266 37.6016C423.266 34.0208 424.438 31.0586 426.781 28.7148C429.19 26.306 432.51 25.1016 436.742 25.1016C440.909 25.1016 444.197 26.306 446.605 28.7148C449.014 31.0586 450.219 34.0208 450.219 37.6016C450.219 41.1172 449.014 44.0469 446.605 46.3906C444.197 48.7344 440.909 49.9062 436.742 49.9062C432.51 49.9062 429.19 48.7344 426.781 46.3906C424.438 44.0469 423.266 41.1172 423.266 37.6016ZM498.582 87.8945V171H475.047V65.3359H497.215L498.582 87.8945ZM494.383 114.262L486.766 114.164C486.831 106.677 487.872 99.8086 489.891 93.5586C491.974 87.3086 494.839 81.9375 498.484 77.4453C502.195 72.9531 506.622 69.5026 511.766 67.0938C516.909 64.6198 522.638 63.3828 528.953 63.3828C534.031 63.3828 538.621 64.099 542.723 65.5312C546.889 66.8984 550.438 69.1445 553.367 72.2695C556.362 75.3945 558.641 79.4635 560.203 84.4766C561.766 89.4245 562.547 95.5117 562.547 102.738V171H538.914V102.641C538.914 97.5625 538.165 93.5586 536.668 90.6289C535.236 87.6341 533.12 85.5182 530.32 84.2812C527.586 82.9792 524.168 82.3281 520.066 82.3281C516.03 82.3281 512.417 83.1745 509.227 84.8672C506.036 86.5599 503.335 88.8711 501.121 91.8008C498.973 94.7305 497.312 98.1159 496.141 101.957C494.969 105.798 494.383 109.9 494.383 114.262ZM630.734 154.203C634.576 154.203 638.026 153.454 641.086 151.957C644.211 150.395 646.717 148.246 648.605 145.512C650.559 142.777 651.633 139.62 651.828 136.039H673.996C673.866 142.875 671.848 149.092 667.941 154.691C664.035 160.29 658.859 164.75 652.414 168.07C645.969 171.326 638.84 172.953 631.027 172.953C622.954 172.953 615.923 171.586 609.934 168.852C603.944 166.052 598.964 162.211 594.992 157.328C591.021 152.445 588.026 146.814 586.008 140.434C584.055 134.053 583.078 127.217 583.078 119.926V116.508C583.078 109.216 584.055 102.38 586.008 96C588.026 89.5547 591.021 83.8906 594.992 79.0078C598.964 74.125 603.944 70.3164 609.934 67.582C615.923 64.7826 622.922 63.3828 630.93 63.3828C639.393 63.3828 646.815 65.0755 653.195 68.4609C659.576 71.7812 664.589 76.4362 668.234 82.4258C671.945 88.3503 673.866 95.2513 673.996 103.129H651.828C651.633 99.2227 650.656 95.707 648.898 92.582C647.206 89.3919 644.797 86.8529 641.672 84.9648C638.612 83.0768 634.934 82.1328 630.637 82.1328C625.884 82.1328 621.945 83.1094 618.82 85.0625C615.695 86.9505 613.254 89.5547 611.496 92.875C609.738 96.1302 608.469 99.8086 607.688 103.91C606.971 107.947 606.613 112.146 606.613 116.508V119.926C606.613 124.288 606.971 128.52 607.688 132.621C608.404 136.723 609.641 140.401 611.398 143.656C613.221 146.846 615.695 149.418 618.82 151.371C621.945 153.259 625.917 154.203 630.734 154.203ZM716.305 21V171H692.867V21H716.305ZM712.203 114.262L704.586 114.164C704.651 106.872 705.66 100.134 707.613 93.9492C709.632 87.7643 712.431 82.3932 716.012 77.8359C719.658 73.2135 724.02 69.6654 729.098 67.1914C734.176 64.6523 739.807 63.3828 745.992 63.3828C751.201 63.3828 755.888 64.099 760.055 65.5312C764.286 66.9635 767.932 69.2747 770.992 72.4648C774.052 75.5898 776.363 79.6914 777.926 84.7695C779.553 89.7826 780.367 95.9023 780.367 103.129V171H756.734V102.934C756.734 97.8555 755.986 93.819 754.488 90.8242C753.056 87.8294 750.94 85.681 748.141 84.3789C745.341 83.0117 741.923 82.3281 737.887 82.3281C733.655 82.3281 729.911 83.1745 726.656 84.8672C723.466 86.5599 720.797 88.8711 718.648 91.8008C716.5 94.7305 714.872 98.1159 713.766 101.957C712.724 105.798 712.203 109.9 712.203 114.262ZM851.777 172.953C843.965 172.953 836.901 171.684 830.586 169.145C824.336 166.54 818.997 162.927 814.57 158.305C810.208 153.682 806.855 148.246 804.512 141.996C802.168 135.746 800.996 129.008 800.996 121.781V117.875C800.996 109.607 802.201 102.12 804.609 95.4141C807.018 88.7083 810.371 82.9792 814.668 78.2266C818.965 73.4089 824.043 69.7305 829.902 67.1914C835.762 64.6523 842.109 63.3828 848.945 63.3828C856.497 63.3828 863.105 64.6523 868.77 67.1914C874.434 69.7305 879.121 73.3112 882.832 77.9336C886.608 82.4909 889.408 87.9271 891.23 94.2422C893.118 100.557 894.062 107.523 894.062 115.141V125.199H812.422V108.305H870.82V106.449C870.69 102.217 869.844 98.2461 868.281 94.5352C866.784 90.8242 864.473 87.8294 861.348 85.5508C858.223 83.2721 854.056 82.1328 848.848 82.1328C844.941 82.1328 841.458 82.9792 838.398 84.6719C835.404 86.2995 832.897 88.6758 830.879 91.8008C828.861 94.9258 827.298 98.7018 826.191 103.129C825.15 107.491 824.629 112.406 824.629 117.875V121.781C824.629 126.404 825.247 130.701 826.484 134.672C827.786 138.578 829.674 141.996 832.148 144.926C834.622 147.855 837.617 150.167 841.133 151.859C844.648 153.487 848.652 154.301 853.145 154.301C858.809 154.301 863.854 153.161 868.281 150.883C872.708 148.604 876.549 145.382 879.805 141.215L892.207 153.227C889.928 156.547 886.966 159.737 883.32 162.797C879.674 165.792 875.215 168.233 869.941 170.121C864.733 172.009 858.678 172.953 851.777 172.953ZM956.586 154.203C960.427 154.203 963.878 153.454 966.938 151.957C970.062 150.395 972.569 148.246 974.457 145.512C976.41 142.777 977.484 139.62 977.68 136.039H999.848C999.717 142.875 997.699 149.092 993.793 154.691C989.887 160.29 984.711 164.75 978.266 168.07C971.82 171.326 964.691 172.953 956.879 172.953C948.806 172.953 941.775 171.586 935.785 168.852C929.796 166.052 924.815 162.211 920.844 157.328C916.872 152.445 913.878 146.814 911.859 140.434C909.906 134.053 908.93 127.217 908.93 119.926V116.508C908.93 109.216 909.906 102.38 911.859 96C913.878 89.5547 916.872 83.8906 920.844 79.0078C924.815 74.125 929.796 70.3164 935.785 67.582C941.775 64.7826 948.773 63.3828 956.781 63.3828C965.245 63.3828 972.667 65.0755 979.047 68.4609C985.427 71.7812 990.44 76.4362 994.086 82.4258C997.797 88.3503 999.717 95.2513 999.848 103.129H977.68C977.484 99.2227 976.508 95.707 974.75 92.582C973.057 89.3919 970.648 86.8529 967.523 84.9648C964.464 83.0768 960.785 82.1328 956.488 82.1328C951.736 82.1328 947.797 83.1094 944.672 85.0625C941.547 86.9505 939.105 89.5547 937.348 92.875C935.59 96.1302 934.32 99.8086 933.539 103.91C932.823 107.947 932.465 112.146 932.465 116.508V119.926C932.465 124.288 932.823 128.52 933.539 132.621C934.255 136.723 935.492 140.401 937.25 143.656C939.073 146.846 941.547 149.418 944.672 151.371C947.797 153.259 951.768 154.203 956.586 154.203ZM1042.64 21V171H1019.01V21H1042.64ZM1108.27 65.3359L1062.27 116.312L1037.08 142.094L1030.93 122.172L1049.97 98.6367L1079.85 65.3359H1108.27ZM1084.93 171L1050.65 121.391L1065.5 104.887L1112.18 171H1084.93Z" fill="white"/>
</svg>
